<?xml version="1.0" encoding="UTF-8" standalone="no"?>
<!-- Created with Inkscape (http://www.inkscape.org/) -->

<svg
   xmlns:dc="http://purl.org/dc/elements/1.1/"
   xmlns:cc="http://creativecommons.org/ns#"
   xmlns:rdf="http://www.w3.org/1999/02/22-rdf-syntax-ns#"
   xmlns:svg="http://www.w3.org/2000/svg"
   xmlns="http://www.w3.org/2000/svg"
   xmlns:sodipodi="http://sodipodi.sourceforge.net/DTD/sodipodi-0.dtd"
   xmlns:inkscape="http://www.inkscape.org/namespaces/inkscape"
   width="210mm"
   height="297mm"
   viewBox="0 0 744.09448819 1052.3622047"
   id="svg2"
   version="1.1"
   inkscape:version="0.91 r13725"
   sodipodi:docname="Facebook.svg">
  <defs
     id="defs4" />
  <sodipodi:namedview
     id="base"
     pagecolor="#ffffff"
     bordercolor="#666666"
     borderopacity="1.0"
     inkscape:pageopacity="0.0"
     inkscape:pageshadow="2"
     inkscape:zoom="0.35"
     inkscape:cx="-317.69708"
     inkscape:cy="513.47381"
     inkscape:document-units="px"
     inkscape:current-layer="layer1"
     showgrid="false"
     inkscape:window-width="1920"
     inkscape:window-height="1027"
     inkscape:window-x="0"
     inkscape:window-y="0"
     inkscape:window-maximized="1" />
  <metadata
     id="metadata7">
    <rdf:RDF>
      <cc:Work
         rdf:about="">
        <dc:format>image/svg+xml</dc:format>
        <dc:type
           rdf:resource="http://purl.org/dc/dcmitype/StillImage" />
        <dc:title></dc:title>
      </cc:Work>
    </rdf:RDF>
  </metadata>
  <g
     inkscape:label="Layer 1"
     inkscape:groupmode="layer"
     id="layer1">
    <path
       style="fill:#000000"
       d="M 134.05289,1034.2523 C 93.048144,1022.7803 57.587845,982.24352 38.968999,925.55646 l -9.772572,-29.75342 0,-361.75208 0,-361.75195 9.874545,-30.07151 c 11.884651,-36.19289 38.888871,-76.102961 62.531778,-92.416903 9.51847,-6.567907 27.70148,-14.087146 40.40669,-16.709417 32.51368,-6.710677 450.69019,-6.25745 479.95602,0.520084 12.87107,2.980751 30.04908,10.25962 38.17342,16.175155 22.66435,16.5026 49.27615,55.098451 60.51832,87.771471 l 10.14637,29.48833 0,366.99474 c 0,366.75413 -0.003,367.01122 -8.05971,391.90185 -12.12196,37.46115 -41.42467,78.69249 -68.26351,96.05239 -21.27846,13.7629 -26.85205,14.9373 -80.71189,17.0055 l -57.85504,2.2217 0,-194.60958 0,-194.60926 45.84673,0 c 52.89834,0 46.73506,8.19607 53.22352,-70.77756 2.13218,-25.95177 4.82745,-56.0322 5.98948,-66.84547 l 2.11278,-19.66044 -53.96397,0 -53.96395,0 1.29602,-64.4615 c 1.93264,-96.12377 6.89267,-103.30752 71.32857,-103.30752 l 38.3309,0 0,-70.45631 0,-70.45628 -16.62534,-3.55835 c -9.14393,-1.95705 -37.79927,-2.61672 -63.67854,-1.46586 -44.22138,1.96646 -48.51745,3.12112 -71.38059,19.18559 -53.91152,37.88007 -72.30008,97.06948 -72.36127,232.91755 l -0.0265,61.60268 -45.9167,0 -45.91669,0 0,78.64174 0,78.64173 45.91669,0 45.9167,0 0,193.98307 0,193.98297 -125.81176,-0.5747 c -69.19647,-0.3145 -133.17535,-2.6343 -142.17537,-5.1526 z"
       id="path4147"
       inkscape:connector-curvature="0" />
  </g>
</svg>
