<svg xmlns="http://www.w3.org/2000/svg" viewBox="0 0 190 173.2"><defs><style>.cls-1{fill:none;}.cls-1,.cls-2,.cls-3,.cls-4,.cls-5,.cls-6,.cls-7,.cls-8,.cls-9{stroke:#000;stroke-miterlimit:10;}.cls-2{fill:#81d4e6;}.cls-3{fill:#fff;}.cls-5{fill:#0094aa;}.cls-6{fill:#ff151b;}.cls-7{fill:#2aa3ff;}.cls-8{fill:#e90041;}.cls-9{fill:#ff000e;}</style></defs><title>LogoHover_200x200v5 copy</title><g id="Grund"><ellipse id="Kreis" class="cls-1" cx="95" cy="86.6" rx="94.5" ry="86.1"/></g><g id="Hals"><path id="Hals-2" data-name="Hals" class="cls-2" d="M85.5,161.5s-21-19,4-39c5-6,6-8,6-8l37-9s-13,10-10,19a97.42,97.42,0,0,0-8,6l-4,13Z" transform="translate(-3 -12.8)"/></g><g id="Kopfhintergrund"><path class="cls-2" d="M66.5,111.5s-19-8-16-20a95.11,95.11,0,0,0,21,2l-8-1,6-14h-4s33-17,53-13,28,17,28,17,20,19-48.5,31.25Z" transform="translate(-3 -12.8)"/></g><g id="Nase"><path class="cls-1" d="M63.5,101.5c2.33,1,4.66,1.27,7,0" transform="translate(-3 -12.8)"/></g><g id="Eye"><path id="WeislinksAuge" class="cls-3" d="M87.5,81.5s-8,13-4,19c12,0,26-5,26-5s-10-4-7-14A60.09,60.09,0,0,1,87.5,81.5Z" transform="translate(-3 -12.8)"/><path id="AugenFabeLinks" class="cls-2" d="M113.5,94.5l-3,1c-11-4-8-14-8-14h3C105.11,87.24,107,91.95,113.5,94.5Z" transform="translate(-3 -12.8)"/><path id="SchwarzLinks" class="cls-4" d="M105.5,81.5h10s-4,6,6,9c-4,4-8,4-8,4-5.62-3-8.63-7.11-8-12.92" transform="translate(-3 -12.8)"/><path id="LichtLinks" class="cls-3" d="M115.5,81.5h5s7,3,1,9c-8.27-2.33-7.13-8.28-6-8.9" transform="translate(-3 -12.8)"/><polyline id="AugenHaarlinks" class="cls-1" points="100.5 68.7 120.5 64.7 102.5 68.7 125.5 67.7 117.5 68.7 120.5 70.7 130.5 70.7 120.5 70.7"/><polygon id="WeißRechts" class="cls-3" points="57.5 66.7 53.5 79.7 60.5 80.7 66.5 65.7 57.5 66.7"/><path id="AugeblueRight" class="cls-2" d="M60.5,80.5s-3,10,4,10c.34-1.06,1-2.07,1-3,0-4.6-4-8-4-8Z" transform="translate(-3 -12.8)"/><path id="SchwarzRechts" class="cls-4" d="M62.5,79.5s-2,8,3,8c2-5,4-9,4-9Z" transform="translate(-3 -12.8)"/></g><g id="Haare"><path class="cls-5" d="M145,97.75c-14.35,7-27.5,18.75-31.5,31.75,8.89-2.72,16.45-6.53,22-12,9.7-6.59,21-13,18-21,2.39,5.69-1,11.86-16,19-6,8-3,17-3,17s20,7,30-2c-24,3-10-14-9-15s11-7,13-10-4-9-4-9,21-16-15-24c5-2,28,2,28,2-27-26-46-5-46-5s12,7,14,13c0,0,16,9-28,23l28-8" transform="translate(-3 -12.8)"/><path class="cls-5" d="M68.5,76.5l-39,19s-14-25,39-30c-19.09-1.75-35.28,11.26-34,10a71,71,0,0,0-23,0c6-9,52-20,52-20l-13,3c-9.87-3.07-17.68-7.29-21-14,21.4-1.36,39,4,64,15-21-7.29-37.2-15.76-42-27,18.18,2.17,36.52,4.32,43,8,10.71,7.15,17.42,14.87,14,24,3-3-1.92-18.62-9-19,.15-5.73-.72-10.94-8-13,46,3,31,33,31,33C105.34,65.19,87.67,67.29,68.5,76.5Z" transform="translate(-3 -12.8)"/></g><g id="Mund"><path class="cls-6" d="M87.5,115.5c-3-4-20-4-20-4,21-8,30,2,30,2l-10,2s0-5,5-5" transform="translate(-3 -12.8)"/><path class="cls-7" d="M87.5,115.5" transform="translate(-3 -12.8)"/></g><g id="Jake"><path id="JakeLinks" class="cls-8" d="M54.5,175.5s8-22,16-31l-3-3,5-5-8-18s12,7,24,5c-20.79,19.44-3.49,35.66-4,37l-11,22" transform="translate(-3 -12.8)"/><path id="JakeRechts" class="cls-9" d="M83.5,163.5s11-18,27-21l7,4s-21-12-24-25c24,14,39,13,39,13s3,3,5,3a36.09,36.09,0,0,0-5,4l4,1s-14.75,12.75-4.37,37.38c-25.82,9-57.59,4.62-58.12,2.38" transform="translate(-3 -12.8)"/><path id="JakeHinten" class="cls-9" d="M131.5,149.5s6,15.25,26,16.63a167,167,0,0,1-25,13.21C128.26,169.88,126.59,160.1,131.5,149.5Z" transform="translate(-3 -12.8)"/></g></svg>